<svg version="1.1" viewBox="0.0 0.0 64.0 64.0" fill="none" stroke="none" stroke-linecap="square" stroke-miterlimit="10" xmlns:xlink="http://www.w3.org/1999/xlink" xmlns="http://www.w3.org/2000/svg"><clipPath id="g1bf28efb66f_0_0.0"><path d="m0 0l64.0 0l0 64.0l-64.0 0l0 -64.0z" clip-rule="nonzero"/></clipPath><g clip-path="url(#g1bf28efb66f_0_0.0)"><path fill="#000000" fill-opacity="0.0" d="m0 0l64.0 0l0 64.0l-64.0 0z" fill-rule="evenodd"/><g filter="url(#shadowFilter-g1bf28efb66f_0_0.1)"><use xlink:href="#g1bf28efb66f_0_0.1" transform="matrix(1.0 0.0 0.0 1.0 0.0 2.0)"/></g><defs><filter id="shadowFilter-g1bf28efb66f_0_0.1" filterUnits="userSpaceOnUse"><feGaussianBlur in="SourceAlpha" stdDeviation="2.0" result="blur"/><feComponentTransfer in="blur" color-interpolation-filters="sRGB"><feFuncR type="linear" slope="0" intercept="0.0"/><feFuncG type="linear" slope="0" intercept="0.0"/><feFuncB type="linear" slope="0" intercept="0.0"/><feFuncA type="linear" slope="0.55" intercept="0"/></feComponentTransfer></filter></defs><g id="g1bf28efb66f_0_0.1"><path fill="#ffab40" d="m2.7007873 32.0l0 0c0 -16.020607 13.121229 -29.007874 29.307087 -29.007874l0 0c7.772724 0 15.227097 3.056178 20.72324 8.49621c5.4961433 5.440032 8.583847 12.818297 8.583847 20.511665l0 0c0 16.020607 -13.121231 29.007874 -29.307087 29.007874l0 0c-16.185856 0 -29.307087 -12.987267 -29.307087 -29.007874z" fill-rule="evenodd"/><path stroke="#d9d9d9" stroke-width="1.0" stroke-linejoin="round" stroke-linecap="butt" d="m2.7007873 32.0l0 0c0 -16.020607 13.121229 -29.007874 29.307087 -29.007874l0 0c7.772724 0 15.227097 3.056178 20.72324 8.49621c5.4961433 5.440032 8.583847 12.818297 8.583847 20.511665l0 0c0 16.020607 -13.121231 29.007874 -29.307087 29.007874l0 0c-16.185856 0 -29.307087 -12.987267 -29.307087 -29.007874z" fill-rule="evenodd"/></g><g filter="url(#shadowFilter-g1bf28efb66f_0_0.2)"><use xlink:href="#g1bf28efb66f_0_0.2" transform="matrix(1.0 0.0 0.0 1.0 0.0 2.0)"/></g><defs><filter id="shadowFilter-g1bf28efb66f_0_0.2" filterUnits="userSpaceOnUse"><feGaussianBlur in="SourceAlpha" stdDeviation="2.0" result="blur"/><feComponentTransfer in="blur" color-interpolation-filters="sRGB"><feFuncR type="linear" slope="0" intercept="0.0"/><feFuncG type="linear" slope="0" intercept="0.0"/><feFuncB type="linear" slope="0" intercept="0.0"/><feFuncA type="linear" slope="0.5" intercept="0"/></feComponentTransfer></filter></defs><g id="g1bf28efb66f_0_0.2"><path fill="#000000" fill-opacity="0.0" d="m0.0131233595 -7.0l64.0 0l0 74.86614l-64.0 0z" fill-rule="evenodd"/><path fill="#000000" d="m44.07251 26.556248q0 2.328125 -0.484375 4.546875q-0.46875 2.21875 -1.46875 4.28125q-1.0 2.0625 -2.765625 3.546875q-1.765625 1.46875 -4.078125 1.984375l0.3125 7.921875l-4.03125 0l0.359375 -7.921875q-4.328125 -0.109375 -7.328125 -2.1875q-3.0 -2.09375 -3.0 -6.25q0 -0.953125 0.015625 -2.953125q0.03125 -2.0 0.03125 -2.96875q0 -2.59375 -1.078125 -2.59375q-1.328125 0 -1.328125 2.796875l-1.15625 0q0 -2.40625 1.140625 -3.859375q1.140625 -1.453125 3.5 -1.453125q2.953125 0 4.015625 1.765625q1.0625 1.75 1.0625 4.75q0 0.84375 -0.078125 2.40625q-0.078125 1.546875 -0.078125 2.234375q0 1.4375 0.15625 2.484375q0.15625 1.03125 0.59375 2.078125q0.453125 1.03125 1.34375 1.703125q0.90625 0.65625 2.296875 0.890625l1.0 -22.484375l1.125 0l1.0 22.484375q2.484375 -0.515625 4.09375 -2.828125q1.625 -2.328125 1.625 -4.9375q0 -1.4375 -0.9375 -4.078125q-0.9375 -2.640625 -0.9375 -4.078125q0 -0.921875 0.515625 -1.65625q0.515625 -0.734375 1.4375 -0.734375q1.25 0 1.984375 0.90625q0.734375 0.890625 0.9375 1.9375q0.203125 1.03125 0.203125 2.265625z" fill-rule="nonzero"/></g></g></svg>